<?xml version="1.0" standalone="no"?>
<!DOCTYPE svg PUBLIC "-//W3C//DTD SVG 20010904//EN"
 "http://www.w3.org/TR/2001/REC-SVG-20010904/DTD/svg10.dtd">
<svg version="1.0" xmlns="http://www.w3.org/2000/svg"
 width="500.000000pt" height="500.000000pt" viewBox="0 0 500.000000 500.000000"
 preserveAspectRatio="xMidYMid meet">

<g transform="translate(0.000000,500.000000) scale(0.100000,-0.100000)"
fill="#000000" stroke="none">
<path d="M1734 3240 c-163 -81 -304 -283 -304 -437 0 -99 47 -165 152 -213 43
-19 118 -27 118 -12 0 4 -24 13 -52 20 -65 15 -126 57 -156 108 -20 33 -22 49
-19 112 6 104 56 201 157 303 120 121 219 154 280 94 73 -73 94 -226 89 -654
-3 -197 0 -305 6 -307 24 -8 35 22 64 186 41 225 90 426 146 596 50 150 51
154 31 154 -25 0 -101 -219 -162 -464 -18 -77 -36 -141 -38 -144 -3 -2 -5 79
-5 180 -1 299 -38 447 -124 495 -41 23 -119 16 -183 -17z"/>
<path d="M1070 3235 c0 -10 -6 -12 -17 -8 -17 7 -17 6 0 -20 17 -26 17 -27 -6
-32 -13 -4 -31 -18 -39 -33 -16 -26 -15 -27 5 -28 12 0 31 -4 41 -9 14 -6 17
-5 12 3 -4 7 -1 12 6 12 8 0 19 -14 25 -31 13 -33 35 -35 41 -4 3 12 0 15 -10
10 -7 -3 -5 0 5 9 11 8 25 12 33 9 8 -3 14 0 14 6 0 15 -37 33 -63 29 -14 -2
-23 3 -25 15 -2 10 3 17 12 17 20 0 20 4 1 40 -16 32 -35 40 -35 15z"/>
<path d="M2840 3195 c-14 -17 -29 -172 -30 -311 0 -165 -6 -191 -52 -221 l-39
-26 -34 33 c-39 38 -43 55 -18 82 15 17 18 17 34 2 19 -17 39 -12 39 11 0 16
-30 35 -55 35 -25 0 -88 -67 -81 -86 8 -20 -12 -48 -55 -80 -54 -39 -63 -34
-55 35 7 64 -1 79 -34 61 -18 -10 -20 -8 -20 20 0 46 -31 36 -45 -14 -14 -49
-38 -63 -70 -42 -32 21 -38 20 -75 -10 -17 -15 -33 -24 -37 -21 -10 11 38 67
63 73 34 9 30 24 -6 24 -53 0 -124 -90 -106 -135 8 -22 37 -18 81 12 29 20 54
28 90 29 28 1 65 5 82 9 l33 7 -6 -45 c-6 -39 -4 -46 15 -57 31 -16 79 2 134
51 l46 39 15 -22 c21 -30 20 -54 -5 -94 -18 -30 -19 -35 -5 -40 26 -10 44 2
65 45 11 21 35 51 53 65 l33 26 5 -38 c8 -58 32 -53 64 13 29 58 48 68 66 35
17 -32 47 -43 82 -31 25 9 35 8 48 -4 24 -22 41 -19 85 13 32 24 45 28 84 25
31 -3 53 0 66 10 27 20 12 33 -20 19 -21 -10 -32 -9 -56 4 -33 17 -25 19 -98
-33 l-24 -17 17 33 c10 18 31 40 47 49 36 21 37 32 3 32 -17 0 -40 -14 -67
-41 -23 -23 -54 -47 -69 -55 -25 -13 -29 -12 -60 14 -44 38 -61 43 -93 26 -24
-12 -26 -12 -21 1 79 206 101 460 43 497 -19 12 -44 9 -57 -7z m41 -212 c-16
-160 -32 -187 -25 -43 2 63 7 140 11 170 l6 55 9 -35 c6 -22 6 -74 -1 -147z"/>
<path d="M922 2978 c-7 -7 -8 -17 -3 -27 5 -9 12 -42 16 -73 4 -32 11 -58 16
-58 5 0 9 8 9 18 0 14 2 15 10 2 8 -12 10 -12 16 3 4 12 13 16 25 12 14 -5 19
-1 19 12 0 11 5 24 12 31 9 9 7 12 -10 12 -20 0 -27 10 -23 33 0 4 -6 7 -14 7
-12 0 -14 -7 -9 -26 6 -22 4 -25 -12 -22 -13 3 -18 11 -16 27 3 31 -21 64 -36
49z"/>
<path d="M1220 2919 c0 -25 -35 -54 -61 -51 -23 3 -27 0 -25 -23 1 -21 7 -26
39 -32 20 -3 40 -10 43 -14 9 -15 24 -10 24 9 1 13 4 11 15 -8 14 -25 14 -24
15 19 0 37 -2 42 -14 32 -12 -10 -17 -8 -26 9 -9 16 -8 21 5 26 19 8 20 44 0
44 -8 0 -15 -5 -15 -11z"/>
<path d="M1279 2643 c-12 -16 -12 -17 1 -7 8 6 22 14 30 17 13 5 12 6 -1 6 -9
1 -23 -7 -30 -16z"/>
<path d="M1181 2370 c-12 -17 -17 -30 -12 -30 12 0 46 48 39 55 -2 3 -14 -9
-27 -25z"/>
<path d="M1120 2340 c0 -22 3 -40 8 -40 4 0 6 18 4 40 -2 22 -6 40 -8 40 -2 0
-4 -18 -4 -40z"/>
<path d="M1093 2185 c0 -33 2 -45 4 -27 2 18 2 45 0 60 -2 15 -4 0 -4 -33z"/>
<path d="M1511 2088 c1 -29 4 -43 6 -30 3 15 11 22 29 22 13 0 24 5 24 10 0 6
-11 10 -25 10 -34 0 -32 28 3 33 25 4 25 4 -5 6 l-33 1 1 -52z"/>
<path d="M1672 2093 c-2 -53 -2 -53 29 -53 17 0 28 4 24 10 -3 6 -15 10 -25
10 -15 0 -20 9 -23 43 -3 40 -4 40 -5 -10z"/>
<path d="M1822 2128 c-19 -19 -15 -66 7 -78 32 -17 60 -11 77 15 15 23 15 27
0 50 -18 27 -63 34 -84 13z m62 -11 c28 -21 12 -59 -22 -55 -41 5 -42 67 -1
68 3 0 13 -6 23 -13z"/>
<path d="M2004 2115 c20 -78 42 -97 53 -45 8 44 21 46 29 5 9 -49 27 -44 46
15 9 28 12 50 8 50 -5 0 -14 -17 -21 -37 l-12 -38 -12 34 c-15 45 -31 50 -40
12 -9 -44 -22 -46 -29 -6 -4 19 -12 35 -18 35 -6 0 -8 -10 -4 -25z"/>
<path d="M2230 2090 l0 -50 40 0 c22 0 40 5 40 10 0 6 -13 10 -30 10 -16 0
-30 5 -30 10 0 6 11 10 25 10 14 0 25 5 25 10 0 6 -11 10 -25 10 -38 0 -32 28
8 33 28 3 26 4 -10 5 l-43 2 0 -50z"/>
<path d="M2400 2090 c0 -27 5 -50 10 -50 6 0 10 7 10 15 0 20 19 19 43 -2 19
-17 20 -17 14 0 -4 10 -2 27 4 38 15 28 -5 49 -47 49 l-34 0 0 -50z m68 18 c3
-13 -3 -18 -22 -18 -20 0 -26 5 -26 21 0 15 5 20 22 17 13 -2 24 -11 26 -20z"/>
<path d="M2690 2090 l0 -50 41 0 c24 0 38 4 34 10 -3 6 -17 10 -31 10 -13 0
-24 5 -24 10 0 6 11 10 25 10 14 0 25 5 25 10 0 6 -11 10 -25 10 -38 0 -32 28
8 33 28 3 26 4 -10 5 l-43 2 0 -50z"/>
<path d="M2872 2091 c21 -51 32 -61 41 -38 3 6 12 29 21 50 9 20 12 37 7 37
-5 0 -15 -16 -21 -35 -14 -43 -24 -44 -36 -3 -5 17 -15 33 -21 35 -8 3 -5 -14
9 -46z"/>
<path d="M3040 2090 l0 -50 35 0 c19 0 35 5 35 10 0 6 -11 10 -25 10 -14 0
-25 5 -25 10 0 6 9 10 19 10 11 0 23 5 26 10 4 6 -5 10 -19 10 -35 0 -34 27 2
33 22 3 20 4 -10 6 l-38 1 0 -50z"/>
<path d="M3211 2088 c2 -51 2 -52 8 -14 l6 40 25 -37 c14 -20 28 -37 31 -37 7
0 19 51 19 81 0 11 -4 19 -10 19 -5 0 -10 -15 -10 -32 l-1 -33 -28 33 c-15 17
-31 32 -34 32 -4 0 -6 -24 -6 -52z"/>
<path d="M3395 2131 c14 -6 22 -21 26 -52 l6 -44 1 43 c2 34 6 44 25 52 17 7
12 9 -28 9 -34 0 -44 -3 -30 -8z"/>
<path d="M3557 2133 c-14 -14 -6 -34 18 -45 33 -15 32 -32 0 -25 -16 3 -24 0
-22 -7 2 -6 17 -11 33 -11 40 0 46 36 9 53 -29 13 -24 36 6 27 11 -4 19 -2 19
4 0 12 -52 15 -63 4z"/>
</g>
</svg>
