<?xml version="1.0" standalone="no"?>
<!DOCTYPE svg PUBLIC "-//W3C//DTD SVG 20010904//EN"
 "http://www.w3.org/TR/2001/REC-SVG-20010904/DTD/svg10.dtd">
<svg version="1.0" xmlns="http://www.w3.org/2000/svg"
 width="500.000000pt" height="500.000000pt" viewBox="0 0 500.000000 500.000000"
 preserveAspectRatio="xMidYMid meet">
<metadata>
Created by potrace 1.14, written by Peter Selinger 2001-2017
</metadata>
<g transform="translate(0.000000,500.000000) scale(0.100000,-0.100000)"
fill="#000000" stroke="none">
<path d="M1231 3475 c-6 -42 -11 -88 -10 -103 l1 -27 13 29 c7 17 10 47 7 68
-3 24 -1 38 6 38 12 0 32 -61 32 -95 0 -12 6 -27 12 -33 10 -10 10 -17 0 -33
-8 -12 -9 -18 -3 -14 6 3 11 -1 11 -9 0 -26 -18 -27 -24 -1 -4 14 -11 25 -17
25 -6 0 -8 -9 -4 -19 3 -11 7 -39 9 -63 2 -24 11 -60 20 -81 28 -64 38 -179
22 -256 -15 -69 -53 -168 -62 -159 -2 3 -8 55 -13 116 -7 104 -10 114 -47 175
-21 36 -42 63 -46 60 -5 -2 -8 -33 -8 -69 0 -57 5 -74 49 -158 64 -123 68
-143 40 -198 -13 -24 -35 -79 -50 -123 l-27 -80 -11 40 c-6 22 -20 77 -32 122
-16 63 -30 93 -58 125 -21 24 -45 54 -55 68 -18 25 -18 24 -13 -45 4 -76 34
-147 85 -207 75 -88 75 -86 76 -253 l1 -152 -30 50 c-26 44 -47 62 -44 40 1
-5 5 -7 10 -6 5 2 9 0 10 -5 0 -4 2 -17 3 -29 2 -13 -1 -23 -6 -23 -5 0 -4 -9
2 -19 13 -26 13 -31 -4 -25 -8 3 -13 19 -12 44 1 21 -2 36 -6 34 -4 -3 -8 -12
-8 -21 0 -13 -3 -13 -17 -2 -10 7 -7 1 6 -14 29 -32 15 -36 -23 -6 -14 11 -23
25 -20 31 4 6 2 8 -4 4 -6 -3 -20 6 -31 20 -26 32 -27 52 -3 33 15 -13 16 -12
4 3 -8 10 -19 16 -25 15 -6 -1 -11 3 -12 8 0 6 -8 21 -17 35 -8 14 -18 37 -22
51 -5 24 -3 26 20 21 14 -2 45 -24 69 -48 24 -25 46 -40 49 -35 10 16 -117
111 -149 111 -11 0 -4 -41 17 -96 31 -81 109 -163 191 -200 63 -28 64 -30 79
-84 9 -30 19 -64 24 -75 7 -18 4 -17 -27 6 -42 32 -119 72 -126 66 -2 -3 4 -8
15 -11 11 -4 23 -14 26 -22 4 -12 2 -15 -9 -10 -8 3 -14 0 -12 -6 1 -6 -4 -13
-12 -16 -9 -3 -11 0 -6 8 5 9 4 11 -3 6 -7 -4 -12 -3 -12 2 0 4 -10 19 -22 32
-17 18 -18 22 -5 17 9 -3 19 -2 22 3 4 6 0 10 -7 10 -7 0 -23 3 -35 6 -35 9
-29 -17 12 -59 50 -52 70 -61 86 -39 13 15 12 16 -3 3 -10 -7 -18 -9 -18 -3 0
5 11 17 25 26 24 16 27 15 60 -7 19 -13 32 -27 28 -30 -3 -4 -16 -1 -28 7 -20
13 -25 13 -45 -1 -17 -12 -19 -17 -9 -24 8 -5 22 -6 32 -3 9 3 17 1 17 -5 0
-5 19 -13 43 -16 39 -6 47 -12 75 -58 38 -65 88 -124 96 -116 4 3 -12 28 -34
55 -42 51 -110 172 -110 196 0 8 18 31 39 52 38 37 89 132 77 144 -3 3 -6 0
-6 -6 0 -7 -7 -9 -17 -5 -16 6 -16 5 -4 -10 8 -11 9 -17 3 -17 -6 0 -9 -7 -6
-15 11 -27 -6 -16 -26 18 -11 17 -20 28 -20 24 0 -13 22 -51 34 -59 7 -5 7
-11 -3 -20 -8 -7 -11 -8 -8 -2 4 7 -1 18 -10 25 -15 12 -16 12 -10 -6 7 -19 6
-19 -7 -2 -18 23 -26 22 -26 -5 0 -12 -3 -19 -6 -15 -3 3 -3 20 1 37 6 29 8
30 21 13 7 -10 14 -13 14 -6 0 6 -5 15 -10 18 -15 9 -3 41 36 100 29 42 34 46
34 25 0 -23 0 -23 16 -4 14 18 15 18 10 1 -15 -46 -17 -65 -8 -71 12 -7 26 77
17 104 -9 28 -18 25 -54 -15 -40 -46 -71 -106 -91 -179 l-17 -60 -11 60 c-18
92 -25 170 -18 198 4 16 28 40 65 65 55 38 63 50 51 81 -1 3 -2 9 -1 13 1 5
-3 6 -9 2 -6 -3 -8 -10 -5 -15 3 -4 -2 -13 -10 -20 -13 -11 -15 -8 -13 13 1
14 5 24 8 22 4 -2 26 16 50 40 41 42 70 60 54 33 -4 -7 -3 -8 5 -4 6 4 9 11 6
16 -3 4 2 10 10 14 19 7 19 4 -5 -42 -24 -46 -60 -83 -60 -62 0 19 -10 7 -15
-19 -14 -76 102 75 130 169 7 25 7 24 -26 -6 -19 -17 -51 -41 -72 -53 -20 -13
-34 -27 -31 -33 4 -7 2 -8 -5 -4 -16 10 -67 -32 -97 -80 -23 -38 -24 -38 -18
-9 12 62 48 163 94 265 26 58 53 123 59 145 25 81 34 95 86 130 71 47 118 104
148 179 14 33 23 63 21 65 -2 3 -21 -11 -42 -30 -20 -19 -57 -51 -83 -71 -26
-21 -58 -61 -77 -95 l-31 -58 -1 45 c0 25 -6 68 -14 96 -9 33 -12 84 -9 145 4
81 1 106 -21 178 -14 47 -26 93 -26 103 0 10 -4 18 -9 18 -5 0 -14 -34 -20
-75z m66 -237 c-3 -8 -6 -5 -6 6 -1 11 2 17 5 13 3 -3 4 -12 1 -19z m212 -105
c-13 -13 -23 -33 -21 -43 4 -22 -59 -90 -84 -90 -15 0 -13 4 10 29 19 19 24
31 16 36 -7 4 8 26 42 61 29 30 55 49 57 43 2 -6 -7 -22 -20 -36z m6 -23 c-3
-5 -12 -10 -18 -10 -7 0 -6 4 3 10 19 12 23 12 15 0z m-344 -121 c-6 -18 -9
-34 -7 -37 3 -2 8 7 12 22 10 41 26 31 18 -11 -4 -21 -8 -46 -8 -55 -1 -38
-29 10 -30 50 0 22 -4 38 -8 36 -10 -6 -11 40 -1 50 4 3 13 0 21 -8 12 -11 12
-21 3 -47z m36 -61 c-3 -7 -5 -2 -5 12 0 14 2 19 5 13 2 -7 2 -19 0 -25z
m-212 -148 c-3 -5 4 -11 14 -15 11 -3 23 -15 26 -26 4 -10 10 -19 14 -19 14 0
33 -52 22 -63 -5 -5 -7 -17 -3 -26 5 -14 3 -14 -11 -2 -9 7 -14 17 -11 22 3 5
0 9 -6 9 -6 0 -9 4 -6 9 4 5 -2 7 -12 4 -14 -3 -21 4 -30 35 -15 49 -16 95 -2
87 6 -4 8 -10 5 -15z m46 -155 c9 -19 12 -32 8 -29 -13 8 -41 64 -32 64 5 -1
15 -16 24 -35z m49 -50 c0 -5 -5 -3 -10 5 -5 8 -10 20 -10 25 0 6 5 3 10 -5 5
-8 10 -19 10 -25z m145 -485 c3 -5 1 -10 -4 -10 -6 0 -11 5 -11 10 0 6 2 10 4
10 3 0 8 -4 11 -10z m-38 -32 c-3 -8 -6 -5 -6 6 -1 11 2 17 5 13 3 -3 4 -12 1
-19z m-83 -103 c-4 -8 -11 -15 -16 -15 -6 0 -5 6 2 15 7 8 14 15 16 15 2 0 1
-7 -2 -15z"/>
<path d="M1251 3354 c0 -11 3 -14 6 -6 3 7 2 16 -1 19 -3 4 -6 -2 -5 -13z"/>
<path d="M1232 3315 c0 -16 2 -22 5 -12 2 9 2 23 0 30 -3 6 -5 -1 -5 -18z"/>
<path d="M1241 3270 c0 -8 4 -22 9 -30 12 -18 12 -2 0 25 -6 13 -9 15 -9 5z"/>
<path d="M2100 2908 c0 -13 68 -78 81 -78 5 0 9 5 9 10 0 6 -6 10 -13 10 -16
0 -57 42 -57 58 0 7 -4 12 -10 12 -5 0 -10 -5 -10 -12z"/>
<path d="M2057 2856 l-28 -22 26 -12 c14 -6 30 -23 37 -37 12 -26 28 -34 28
-13 0 6 10 23 22 37 l23 26 -30 -25 -30 -26 -27 28 -27 28 22 15 c11 8 19 16
16 19 -2 2 -17 -6 -32 -18z"/>
<path d="M2462 2840 c-48 -20 -150 -96 -210 -158 -35 -36 -133 -148 -218 -248
-86 -101 -160 -184 -164 -184 -12 0 6 49 64 179 55 123 86 220 86 268 0 95
-80 143 -205 123 -126 -20 -233 -97 -286 -205 -27 -56 -31 -72 -27 -125 4 -49
9 -65 33 -90 62 -65 155 -62 214 5 30 35 44 95 21 95 -5 0 -10 -15 -10 -32 -1
-111 -166 -135 -215 -32 -60 127 96 343 266 369 87 13 159 -40 159 -117 0 -31
-57 -200 -102 -303 -42 -95 -72 -184 -65 -191 9 -10 82 34 113 68 17 18 76 89
132 158 220 275 370 399 480 400 31 0 42 4 42 15 0 17 -69 20 -108 5z"/>
<path d="M2193 2759 c18 -31 4 -58 -20 -37 -11 9 -11 14 -1 26 11 13 10 14 -9
4 l-22 -12 22 -23 22 -22 19 23 c19 23 18 24 -4 45 l-23 22 16 -26z"/>
<path d="M3350 2643 c-23 -27 -69 -91 -101 -145 -33 -53 -80 -114 -104 -137
-41 -38 -89 -60 -102 -48 -10 11 36 198 58 233 16 27 19 38 10 47 -17 17 -43
-2 -201 -155 -144 -140 -190 -172 -238 -166 -23 2 -28 8 -30 36 -4 36 6 55 71
140 31 41 37 56 28 65 -9 9 -16 9 -31 -1 -22 -13 -70 -16 -70 -4 0 4 9 21 20
37 25 38 25 55 0 55 -15 0 -27 -16 -48 -62 -46 -99 -220 -282 -251 -263 -25
15 -6 70 58 165 35 50 39 70 15 70 -9 0 -24 10 -33 21 -26 32 -77 19 -153 -39
-108 -82 -157 -183 -110 -225 33 -30 69 -21 122 29 49 46 50 46 50 20 0 -31
35 -70 57 -62 8 3 19 6 25 6 15 0 126 109 175 173 24 31 47 57 51 57 4 0 15
-6 24 -14 16 -12 15 -16 -7 -61 -27 -53 -34 -132 -13 -153 31 -31 115 -7 186
53 l39 34 18 -40 c10 -22 26 -44 36 -50 29 -15 82 -10 114 11 17 11 37 20 46
20 9 0 33 11 53 25 38 26 46 22 21 -11 -8 -10 -15 -27 -15 -36 0 -33 29 -18
69 35 21 28 54 66 72 83 40 37 119 94 130 94 5 0 -8 -27 -27 -60 -20 -32 -38
-77 -41 -99 -5 -34 -2 -41 20 -56 31 -20 48 -13 113 47 l44 41 -6 -31 c-5 -22
-1 -35 15 -51 34 -34 72 -27 130 25 l51 46 0 -31 c0 -41 36 -66 74 -52 29 12
98 78 134 129 38 53 10 36 -46 -28 -58 -66 -108 -98 -124 -82 -16 16 -2 53 52
136 48 73 54 96 27 96 -7 0 -20 9 -30 20 -40 47 -106 11 -259 -136 -117 -114
-158 -138 -158 -93 0 27 13 51 72 132 48 64 56 97 26 97 -20 0 -86 -38 -160
-91 -38 -27 -68 -46 -68 -42 0 5 43 66 95 137 52 70 95 134 95 142 0 27 -29
13 -70 -33z m-314 -173 c-17 -146 -51 -198 -112 -169 -23 11 -30 22 -32 52 -3
36 1 43 67 108 39 38 74 69 77 69 4 0 4 -27 0 -60z m-636 31 c0 -14 -127 -177
-160 -204 -35 -30 -75 -35 -84 -12 -13 35 31 101 118 173 62 51 126 73 126 43z
m1380 3 c0 -6 -77 -111 -114 -154 -41 -48 -85 -80 -113 -80 -79 0 45 179 160
230 35 16 67 17 67 4z"/>
<path d="M1033 2305 c4 -4 -2 -18 -13 -30 l-20 -22 22 -19 c13 -10 18 -12 12
-4 -13 20 -12 45 3 45 21 0 24 12 6 26 -10 7 -15 9 -10 4z"/>
<path d="M1268 2228 c-4 -8 -2 -21 3 -29 7 -12 9 -12 9 1 0 13 1 13 10 0 5 -8
10 -10 10 -4 0 5 -6 18 -13 28 -12 16 -15 16 -19 4z"/>
<path d="M3683 2135 c-33 -50 -54 -106 -47 -127 3 -10 1 -18 -4 -18 -5 0 -8
-30 -8 -68 1 -62 -2 -71 -35 -117 -20 -28 -63 -97 -95 -154 -33 -57 -76 -122
-97 -145 -26 -28 -34 -33 -25 -16 8 16 13 68 13 147 0 68 -1 123 -2 123 -7 0
-63 -107 -62 -120 0 -8 9 2 19 24 l18 39 7 -32 c5 -25 3 -36 -12 -47 -17 -14
-17 -15 5 -9 22 6 31 -8 12 -20 -5 -3 -10 -16 -9 -28 1 -20 2 -20 9 3 8 24 8
24 9 2 1 -12 -6 -25 -14 -28 -8 -4 -15 -14 -15 -24 0 -11 -5 -22 -12 -26 -6
-4 -8 -3 -4 4 3 5 2 12 -3 14 -6 2 -6 21 -2 45 6 32 5 46 -5 54 -12 10 -14 -5
-14 -90 0 -98 -1 -103 -27 -127 -16 -15 -41 -33 -56 -41 -16 -8 -26 -17 -23
-20 8 -8 77 39 141 97 52 47 59 50 113 52 31 1 76 1 100 -1 24 -1 59 3 79 10
l36 12 -24 13 c-33 18 -47 17 -23 -2 18 -15 18 -15 -5 -8 -16 4 -21 3 -17 -5
5 -7 -3 -11 -21 -11 -26 1 -26 2 -10 14 16 12 16 14 1 20 -24 9 -31 7 -14 -5
11 -8 9 -9 -10 -4 -14 4 -27 8 -30 9 -3 0 -27 -7 -53 -18 -27 -10 -50 -16 -53
-14 -4 4 93 158 118 187 6 8 13 22 13 31 1 9 12 32 25 51 68 99 163 164 284
193 100 24 159 61 223 136 23 28 24 32 8 26 -11 -5 -43 -17 -71 -26 -77 -27
-115 -48 -159 -90 -33 -30 -183 -120 -201 -120 -3 0 2 10 10 22 9 12 16 27 16
33 0 5 -5 3 -11 -5 -9 -12 -10 -12 -5 3 3 10 6 24 6 30 0 7 4 6 10 -3 6 -9 10
-10 10 -3 0 22 -19 24 -33 3 -13 -19 -15 -19 -21 -4 -3 9 -1 23 5 30 6 8 8 21
5 30 -4 10 1 25 10 35 10 11 13 19 9 19 -4 0 -1 8 7 18 9 9 18 24 21 32 3 8 3
-10 0 -40 -3 -30 -11 -61 -17 -69 -8 -11 -8 -13 1 -8 7 4 13 0 15 -10 2 -10 8
24 12 75 4 52 6 95 4 97 -2 2 -13 -11 -25 -30z m372 -55 c-7 -12 -145 -83
-145 -75 0 3 -15 -2 -32 -11 l-33 -17 20 23 c20 22 75 55 75 45 0 -3 13 1 29
9 16 9 31 12 35 9 3 -4 6 -1 6 5 0 9 16 17 43 21 5 0 5 -4 2 -9z m-75 -65 c0
-6 -50 -31 -80 -39 -14 -4 -5 5 20 18 45 25 60 30 60 21z m-455 -505 c3 -5 1
-10 -4 -10 -6 0 -11 5 -11 10 0 6 2 10 4 10 3 0 8 -4 11 -10z"/>
<path d="M2010 2041 c0 -47 4 -81 10 -81 6 0 10 31 10 74 0 41 -4 78 -10 81
-6 4 -10 -23 -10 -74z"/>
<path d="M1910 2035 c0 -43 4 -75 10 -75 6 0 10 15 10 34 0 30 4 35 28 39 l27
4 -27 2 c-24 1 -28 5 -28 30 0 26 4 30 33 34 28 3 26 4 -10 5 l-43 2 0 -75z"/>
<path d="M2516 2094 c-3 -9 -2 -23 3 -31 5 -9 4 -27 -2 -44 -16 -40 4 -60 57
-57 40 3 41 4 41 41 1 20 -3 37 -7 37 -4 0 -8 -10 -8 -22 l0 -22 -21 21 c-20
19 -20 23 -6 43 9 12 13 29 10 36 -7 19 -59 18 -67 -2z m54 -8 c0 -17 -24 -38
-33 -29 -15 15 -6 43 13 43 11 0 20 -6 20 -14z m-6 -75 c19 -21 14 -41 -8 -41
-20 0 -37 25 -30 44 8 21 17 20 38 -3z"/>
<path d="M2680 2035 l0 -75 48 2 c43 1 44 2 10 5 -34 4 -38 7 -38 33 0 25 4
29 33 33 l32 4 -32 1 c-29 2 -33 5 -33 31 0 27 4 30 38 34 34 3 33 4 -10 5
l-48 2 0 -75z"/>
<path d="M3109 2073 c-5 -75 7 -113 34 -112 17 1 18 2 5 6 -13 3 -18 15 -18
43 0 28 5 40 18 43 16 4 16 5 0 6 -10 0 -18 8 -18 16 0 21 -20 19 -21 -2z"/>
<path d="M2080 2062 c-8 -3 -18 -10 -22 -16 -12 -17 -9 -61 4 -74 19 -19 56
-14 68 9 22 41 -11 94 -50 81z m35 -52 c0 -41 -27 -53 -45 -20 -16 30 -3 62
23 58 18 -2 22 -10 22 -38z"/>
<path d="M2321 2054 c-23 -17 -28 -63 -9 -82 17 -17 53 -15 68 3 14 17 0 21
-17 4 -15 -15 -43 -4 -43 16 0 11 10 15 35 15 38 0 40 2 25 29 -14 27 -35 32
-59 15z m47 -21 c2 -9 -7 -13 -27 -13 -23 0 -29 4 -24 16 6 17 44 15 51 -3z"/>
<path d="M2428 2062 c-15 -3 -18 -13 -16 -55 1 -47 2 -48 5 -12 2 22 11 46 20
52 19 15 15 21 -9 15z"/>
<path d="M2911 2054 c-23 -17 -28 -63 -9 -82 17 -17 53 -15 68 3 14 17 0 21
-17 4 -15 -15 -43 -4 -43 16 0 11 10 15 35 15 38 0 40 2 25 29 -14 27 -35 32
-59 15z m47 -21 c2 -9 -7 -13 -27 -13 -23 0 -29 4 -24 16 6 17 44 15 51 -3z"/>
<path d="M3030 2061 c-8 -6 -18 -7 -22 -5 -4 3 -7 -19 -6 -48 l1 -53 6 45 c5
37 10 46 29 48 20 3 22 -1 22 -42 0 -25 5 -46 10 -46 16 0 12 77 -6 94 -18 19
-15 18 -34 7z"/>
<path d="M3195 2056 c-23 -17 -14 -43 17 -48 28 -4 38 -38 11 -38 -11 0 -25 6
-32 13 -11 10 -13 9 -9 -3 3 -8 18 -16 35 -18 53 -5 53 52 0 60 -12 2 -22 8
-21 13 1 16 36 19 45 4 4 -7 12 -10 16 -5 4 4 -1 14 -11 22 -24 17 -28 17 -51
0z"/>
<path d="M2165 2021 c10 -75 27 -83 42 -18 l9 42 14 -42 c19 -63 28 -58 45 26
5 23 4 31 -4 27 -6 -4 -11 -18 -11 -32 0 -34 -17 -30 -25 7 -9 39 -25 33 -41
-17 -10 -32 -12 -35 -14 -14 -1 14 -6 34 -11 45 -7 14 -8 8 -4 -24z"/>
<path d="M2794 2038 c11 -46 25 -78 35 -78 5 0 16 21 25 47 17 50 14 75 -4 27
-6 -16 -13 -36 -16 -44 -4 -10 -11 -2 -20 24 -17 47 -29 62 -20 24z"/>
<path d="M3780 1809 c-60 -7 -105 -22 -114 -38 -4 -6 13 -2 36 9 46 21 108 27
108 10 0 -6 -24 -22 -52 -35 -60 -28 -124 -34 -115 -11 4 9 -11 4 -38 -12 -23
-15 -42 -28 -41 -29 5 -5 167 27 196 40 33 13 89 63 79 70 -2 2 -29 0 -59 -4z"/>
<path d="M3670 1750 c-9 -6 -10 -10 -3 -10 6 0 15 5 18 10 8 12 4 12 -15 0z"/>
<path d="M3655 1553 l70 -4 -25 -20 -25 -20 32 15 c58 28 49 36 -39 34 l-83
-2 70 -3z"/>
<path d="M3146 1496 c-52 -55 -86 -123 -86 -168 0 -20 -6 -40 -12 -45 -23 -18
-148 -36 -204 -29 -36 4 -54 3 -54 -5 0 -7 31 -10 94 -8 l93 3 43 -37 c47 -40
78 -40 35 1 -26 24 -27 26 -9 33 16 7 16 8 -6 9 -17 1 -3 9 43 26 l68 25 36
-21 c28 -16 38 -18 47 -9 8 9 7 10 -4 4 -12 -6 -13 -5 -3 5 10 11 15 11 28 0
8 -7 18 -10 21 -7 3 3 -7 12 -23 21 -19 11 -23 15 -10 16 9 0 17 4 17 9 0 14
-91 5 -134 -14 l-39 -17 32 32 c30 30 68 90 57 90 -3 0 -12 -13 -20 -29 -9
-16 -23 -28 -32 -27 -9 0 -18 -5 -20 -12 -1 -7 0 -8 3 -2 2 5 10 10 16 10 7 0
7 -4 -1 -12 -16 -16 -35 -17 -44 -3 -13 17 -9 35 8 35 8 0 13 4 9 9 -6 10 33
27 50 22 6 -1 0 8 -12 21 l-22 23 29 34 c25 28 32 31 45 21 16 -13 21 -35 7
-26 -5 3 -16 -4 -25 -15 -10 -11 -23 -17 -30 -13 -8 5 -7 2 2 -9 17 -22 18
-22 36 11 l15 27 -5 -30 c-5 -27 -3 -26 15 10 44 89 13 113 -54 41z m59 14 c3
-5 2 -10 -4 -10 -5 0 -13 5 -16 10 -3 6 -2 10 4 10 5 0 13 -4 16 -10z m-80
-90 c3 -6 -1 -7 -9 -4 -18 7 -21 14 -7 14 6 0 13 -4 16 -10z"/>
<path d="M3360 1320 c-11 -7 -4 -10 28 -10 24 0 60 -8 79 -17 34 -16 35 -17
13 -25 -13 -5 -20 -11 -17 -14 3 -3 18 1 33 9 l28 15 -40 20 c-50 26 -105 35
-124 22z"/>
<path d="M3373 1273 c9 -2 25 -2 35 0 9 3 1 5 -18 5 -19 0 -27 -2 -17 -5z"/>
<path d="M3288 1238 c21 -8 109 -8 140 1 13 3 -17 6 -67 6 -49 0 -82 -3 -73
-7z"/>
<path d="M3103 1222 c32 -14 36 -19 25 -32 -11 -12 -11 -12 5 -1 12 10 17 10
17 2 0 -7 3 -10 8 -8 4 3 16 -4 26 -14 17 -17 18 -19 3 -19 -9 0 -17 4 -17 9
0 5 -9 7 -19 4 -10 -3 -28 0 -39 6 -12 7 -23 7 -26 2 -11 -16 110 -46 132 -32
9 5 6 13 -10 28 -31 27 -88 59 -118 67 -14 3 -8 -2 13 -12z"/>
</g>
</svg>
